<?xml version="1.0" encoding="UTF-8" standalone="no"?>
<!DOCTYPE svg PUBLIC "-//W3C//DTD SVG 1.1//EN"
 "http://www.w3.org/Graphics/SVG/1.1/DTD/svg11.dtd">
<!-- Generated by graphviz version 2.43.0 (0)
 -->
<!-- Title: pastafarianism Pages: 1 -->
<svg width="1497pt" height="188pt"
 viewBox="0.00 0.00 1496.90 188.00" xmlns="http://www.w3.org/2000/svg" xmlns:xlink="http://www.w3.org/1999/xlink">
<g id="graph0" class="graph" transform="scale(1 1) rotate(0) translate(4 184)">
<title>pastafarianism</title>
<polygon fill="white" stroke="transparent" points="-4,4 -4,-184 1492.9,-184 1492.9,4 -4,4"/>
<!-- RepeatRoot -->
<g id="node1" class="node">
<title>RepeatRoot</title>
<ellipse fill="ghostwhite" stroke="black" cx="716.58" cy="-162" rx="40.33" ry="18"/>
<text text-anchor="middle" x="716.58" y="-159.8" font-family="Times,serif" font-size="9.00">RepeatRoot</text>
</g>
<!-- MainSequence -->
<g id="node2" class="node">
<title>MainSequence</title>
<polygon fill="orange" stroke="black" points="765.08,-108 668.08,-108 668.08,-72 765.08,-72 765.08,-108"/>
<text text-anchor="middle" x="716.58" y="-87.8" font-family="Times,serif" font-size="9.00">Ⓜ MainSequence</text>
</g>
<!-- RepeatRoot&#45;&gt;MainSequence -->
<g id="edge1" class="edge">
<title>RepeatRoot&#45;&gt;MainSequence</title>
<path fill="none" stroke="black" d="M716.58,-143.7C716.58,-135.98 716.58,-126.71 716.58,-118.11"/>
<polygon fill="black" stroke="black" points="720.08,-118.1 716.58,-108.1 713.08,-118.1 720.08,-118.1"/>
</g>
<!-- SeleccionarRobot -->
<g id="node3" class="node">
<title>SeleccionarRobot</title>
<ellipse fill="gray" stroke="black" cx="56.58" cy="-18" rx="56.66" ry="18"/>
<text text-anchor="middle" x="56.58" y="-15.8" font-family="Times,serif" font-size="9.00">SeleccionarRobot</text>
</g>
<!-- MainSequence&#45;&gt;SeleccionarRobot -->
<g id="edge2" class="edge">
<title>MainSequence&#45;&gt;SeleccionarRobot</title>
<path fill="none" stroke="black" d="M667.72,-87.34C565.75,-83.28 323.07,-70.53 122.58,-36 117.54,-35.13 112.31,-34.07 107.11,-32.91"/>
<polygon fill="black" stroke="black" points="107.73,-29.46 97.2,-30.57 106.12,-36.27 107.73,-29.46"/>
</g>
<!-- ObtenerCoordenadas -->
<g id="node4" class="node">
<title>ObtenerCoordenadas</title>
<ellipse fill="gray" stroke="black" cx="197.58" cy="-18" rx="66.29" ry="18"/>
<text text-anchor="middle" x="197.58" y="-15.8" font-family="Times,serif" font-size="9.00">ObtenerCoordenadas</text>
</g>
<!-- MainSequence&#45;&gt;ObtenerCoordenadas -->
<g id="edge3" class="edge">
<title>MainSequence&#45;&gt;ObtenerCoordenadas</title>
<path fill="none" stroke="black" d="M667.84,-84.79C586.01,-77.37 415.97,-60.38 273.58,-36 267.77,-35.01 261.74,-33.86 255.73,-32.64"/>
<polygon fill="black" stroke="black" points="256.19,-29.16 245.68,-30.53 254.75,-36.01 256.19,-29.16"/>
</g>
<!-- NavegarHaciaDestino -->
<g id="node5" class="node">
<title>NavegarHaciaDestino</title>
<ellipse fill="gray" stroke="black" cx="350.58" cy="-18" rx="68.25" ry="18"/>
<text text-anchor="middle" x="350.58" y="-15.8" font-family="Times,serif" font-size="9.00">NavegarHaciaDestino</text>
</g>
<!-- MainSequence&#45;&gt;NavegarHaciaDestino -->
<g id="edge4" class="edge">
<title>MainSequence&#45;&gt;NavegarHaciaDestino</title>
<path fill="none" stroke="black" d="M667.9,-80.62C610.38,-70.6 511.83,-53.02 427.58,-36 422.13,-34.9 416.47,-33.72 410.8,-32.51"/>
<polygon fill="black" stroke="black" points="411.16,-29.01 400.64,-30.33 409.68,-35.85 411.16,-29.01"/>
</g>
<!-- DetectarObjeto -->
<g id="node6" class="node">
<title>DetectarObjeto</title>
<ellipse fill="gray" stroke="black" cx="487.58" cy="-18" rx="50.61" ry="18"/>
<text text-anchor="middle" x="487.58" y="-15.8" font-family="Times,serif" font-size="9.00">DetectarObjeto</text>
</g>
<!-- MainSequence&#45;&gt;DetectarObjeto -->
<g id="edge5" class="edge">
<title>MainSequence&#45;&gt;DetectarObjeto</title>
<path fill="none" stroke="black" d="M668.02,-74.15C628.73,-62.14 573.72,-45.33 534.8,-33.43"/>
<polygon fill="black" stroke="black" points="535.36,-29.94 524.77,-30.37 533.31,-36.64 535.36,-29.94"/>
</g>
<!-- Grasp -->
<g id="node7" class="node">
<title>Grasp</title>
<ellipse fill="gray" stroke="black" cx="583.58" cy="-18" rx="27" ry="18"/>
<text text-anchor="middle" x="583.58" y="-15.8" font-family="Times,serif" font-size="9.00">Grasp</text>
</g>
<!-- MainSequence&#45;&gt;Grasp -->
<g id="edge6" class="edge">
<title>MainSequence&#45;&gt;Grasp</title>
<path fill="none" stroke="black" d="M684.04,-71.88C662.44,-60.5 634.29,-45.69 613.29,-34.64"/>
<polygon fill="black" stroke="black" points="614.67,-31.41 604.19,-29.85 611.41,-37.6 614.67,-31.41"/>
</g>
<!-- SafePos -->
<g id="node8" class="node">
<title>SafePos</title>
<ellipse fill="gray" stroke="black" cx="658.58" cy="-18" rx="30.04" ry="18"/>
<text text-anchor="middle" x="658.58" y="-15.8" font-family="Times,serif" font-size="9.00">SafePos</text>
</g>
<!-- MainSequence&#45;&gt;SafePos -->
<g id="edge7" class="edge">
<title>MainSequence&#45;&gt;SafePos</title>
<path fill="none" stroke="black" d="M702.24,-71.7C694.98,-62.93 686.05,-52.15 678.16,-42.63"/>
<polygon fill="black" stroke="black" points="680.64,-40.14 671.57,-34.67 675.25,-44.6 680.64,-40.14"/>
</g>
<!-- ObtenerCoordenadas* -->
<g id="node9" class="node">
<title>ObtenerCoordenadas*</title>
<ellipse fill="gray" stroke="black" cx="775.58" cy="-18" rx="68.91" ry="18"/>
<text text-anchor="middle" x="775.58" y="-15.8" font-family="Times,serif" font-size="9.00">ObtenerCoordenadas*</text>
</g>
<!-- MainSequence&#45;&gt;ObtenerCoordenadas* -->
<g id="edge8" class="edge">
<title>MainSequence&#45;&gt;ObtenerCoordenadas*</title>
<path fill="none" stroke="black" d="M731.16,-71.7C738.34,-63.18 747.12,-52.76 754.97,-43.45"/>
<polygon fill="black" stroke="black" points="757.8,-45.52 761.57,-35.62 752.45,-41.01 757.8,-45.52"/>
</g>
<!-- NavegarHaciaDestino* -->
<g id="node10" class="node">
<title>NavegarHaciaDestino*</title>
<ellipse fill="gray" stroke="black" cx="932.58" cy="-18" rx="70.37" ry="18"/>
<text text-anchor="middle" x="932.58" y="-15.8" font-family="Times,serif" font-size="9.00">NavegarHaciaDestino*</text>
</g>
<!-- MainSequence&#45;&gt;NavegarHaciaDestino* -->
<g id="edge9" class="edge">
<title>MainSequence&#45;&gt;NavegarHaciaDestino*</title>
<path fill="none" stroke="black" d="M765.32,-73.2C799.79,-62.04 845.91,-47.09 880.99,-35.72"/>
<polygon fill="black" stroke="black" points="882.14,-39.03 890.57,-32.61 879.98,-32.37 882.14,-39.03"/>
</g>
<!-- Release -->
<g id="node11" class="node">
<title>Release</title>
<ellipse fill="gray" stroke="black" cx="1050.58" cy="-18" rx="30.04" ry="18"/>
<text text-anchor="middle" x="1050.58" y="-15.8" font-family="Times,serif" font-size="9.00">Release</text>
</g>
<!-- MainSequence&#45;&gt;Release -->
<g id="edge10" class="edge">
<title>MainSequence&#45;&gt;Release</title>
<path fill="none" stroke="black" d="M765.17,-83.8C824.31,-76.66 926.8,-61.71 1011.58,-36 1013.85,-35.31 1016.16,-34.53 1018.46,-33.69"/>
<polygon fill="black" stroke="black" points="1019.81,-36.92 1027.82,-29.98 1017.23,-30.41 1019.81,-36.92"/>
</g>
<!-- SafePos* -->
<g id="node12" class="node">
<title>SafePos*</title>
<ellipse fill="gray" stroke="black" cx="1130.58" cy="-18" rx="32.16" ry="18"/>
<text text-anchor="middle" x="1130.58" y="-15.8" font-family="Times,serif" font-size="9.00">SafePos*</text>
</g>
<!-- MainSequence&#45;&gt;SafePos* -->
<g id="edge11" class="edge">
<title>MainSequence&#45;&gt;SafePos*</title>
<path fill="none" stroke="black" d="M765.36,-86C837.37,-80.69 975.86,-67.12 1089.58,-36 1091.9,-35.37 1094.26,-34.63 1096.63,-33.83"/>
<polygon fill="black" stroke="black" points="1098.06,-37.04 1106.22,-30.28 1095.62,-30.47 1098.06,-37.04"/>
</g>
<!-- ObtenerCoordenadas** -->
<g id="node13" class="node">
<title>ObtenerCoordenadas**</title>
<ellipse fill="gray" stroke="black" cx="1252.58" cy="-18" rx="71.68" ry="18"/>
<text text-anchor="middle" x="1252.58" y="-15.8" font-family="Times,serif" font-size="9.00">ObtenerCoordenadas**</text>
</g>
<!-- MainSequence&#45;&gt;ObtenerCoordenadas** -->
<g id="edge12" class="edge">
<title>MainSequence&#45;&gt;ObtenerCoordenadas**</title>
<path fill="none" stroke="black" d="M765.27,-84.79C848.74,-77.26 1024.41,-59.97 1171.58,-36 1177.82,-34.98 1184.3,-33.82 1190.76,-32.58"/>
<polygon fill="black" stroke="black" points="1191.72,-35.96 1200.86,-30.59 1190.37,-29.09 1191.72,-35.96"/>
</g>
<!-- NavegarHaciaDestino** -->
<g id="node14" class="node">
<title>NavegarHaciaDestino**</title>
<ellipse fill="gray" stroke="black" cx="1415.58" cy="-18" rx="73.15" ry="18"/>
<text text-anchor="middle" x="1415.58" y="-15.8" font-family="Times,serif" font-size="9.00">NavegarHaciaDestino**</text>
</g>
<!-- MainSequence&#45;&gt;NavegarHaciaDestino** -->
<g id="edge13" class="edge">
<title>MainSequence&#45;&gt;NavegarHaciaDestino**</title>
<path fill="none" stroke="black" d="M765.2,-86.79C869.68,-81.61 1123.21,-66.73 1333.58,-36 1340.15,-35.04 1346.99,-33.88 1353.79,-32.62"/>
<polygon fill="black" stroke="black" points="1354.53,-36.05 1363.69,-30.73 1353.21,-29.17 1354.53,-36.05"/>
</g>
</g>
</svg>
