<?xml version="1.0" encoding="UTF-8" standalone="no"?>
<!DOCTYPE svg PUBLIC "-//W3C//DTD SVG 1.1//EN"
 "http://www.w3.org/Graphics/SVG/1.1/DTD/svg11.dtd">
<!-- Generated by graphviz version 2.43.0 (0)
 -->
<!-- Title: pastafarianism Pages: 1 -->
<svg width="1283pt" height="188pt"
 viewBox="0.00 0.00 1283.32 188.00" xmlns="http://www.w3.org/2000/svg" xmlns:xlink="http://www.w3.org/1999/xlink">
<g id="graph0" class="graph" transform="scale(1 1) rotate(0) translate(4 184)">
<title>pastafarianism</title>
<polygon fill="white" stroke="transparent" points="-4,4 -4,-184 1279.32,-184 1279.32,4 -4,4"/>
<!-- MainSequence -->
<g id="node1" class="node">
<title>MainSequence</title>
<polygon fill="orange" stroke="black" points="421.2,-180 324.2,-180 324.2,-144 421.2,-144 421.2,-180"/>
<text text-anchor="middle" x="372.7" y="-159.8" font-family="Times,serif" font-size="9.00">Ⓜ MainSequence</text>
</g>
<!-- Start -->
<g id="node2" class="node">
<title>Start</title>
<ellipse fill="gray" stroke="black" cx="54.7" cy="-90" rx="27" ry="18"/>
<text text-anchor="middle" x="54.7" y="-87.8" font-family="Times,serif" font-size="9.00">Start</text>
</g>
<!-- MainSequence&#45;&gt;Start -->
<g id="edge1" class="edge">
<title>MainSequence&#45;&gt;Start</title>
<path fill="none" stroke="black" d="M324.12,-155.7C267.17,-148.61 170.43,-133.85 90.7,-108 88.78,-107.38 86.83,-106.67 84.88,-105.92"/>
<polygon fill="black" stroke="black" points="85.85,-102.53 75.28,-101.82 83.1,-108.96 85.85,-102.53"/>
</g>
<!-- SelectRobot -->
<g id="node3" class="node">
<title>SelectRobot</title>
<ellipse fill="gray" stroke="black" cx="141.7" cy="-90" rx="41.64" ry="18"/>
<text text-anchor="middle" x="141.7" y="-87.8" font-family="Times,serif" font-size="9.00">SelectRobot</text>
</g>
<!-- MainSequence&#45;&gt;SelectRobot -->
<g id="edge2" class="edge">
<title>MainSequence&#45;&gt;SelectRobot</title>
<path fill="none" stroke="black" d="M324.05,-147.18C287.75,-136.75 237,-121.9 192.7,-108 189.59,-107.02 186.37,-105.99 183.14,-104.95"/>
<polygon fill="black" stroke="black" points="184.07,-101.57 173.48,-101.78 181.89,-108.22 184.07,-101.57"/>
</g>
<!-- NavigateToObject -->
<g id="node4" class="node">
<title>NavigateToObject</title>
<polygon fill="orange" stroke="black" points="313.7,-108 201.7,-108 201.7,-72 313.7,-72 313.7,-108"/>
<text text-anchor="middle" x="257.7" y="-87.8" font-family="Times,serif" font-size="9.00">Ⓜ NavigateToObject</text>
</g>
<!-- MainSequence&#45;&gt;NavigateToObject -->
<g id="edge3" class="edge">
<title>MainSequence&#45;&gt;NavigateToObject</title>
<path fill="none" stroke="black" d="M344.57,-143.88C329.54,-134.72 310.84,-123.34 294.64,-113.48"/>
<polygon fill="black" stroke="black" points="296.31,-110.4 285.94,-108.19 292.67,-116.38 296.31,-110.4"/>
</g>
<!-- HoldObject -->
<g id="node7" class="node">
<title>HoldObject</title>
<polygon fill="orange" stroke="black" points="413.2,-108 332.2,-108 332.2,-72 413.2,-72 413.2,-108"/>
<text text-anchor="middle" x="372.7" y="-87.8" font-family="Times,serif" font-size="9.00">Ⓜ HoldObject</text>
</g>
<!-- MainSequence&#45;&gt;HoldObject -->
<g id="edge6" class="edge">
<title>MainSequence&#45;&gt;HoldObject</title>
<path fill="none" stroke="black" d="M372.7,-143.7C372.7,-135.98 372.7,-126.71 372.7,-118.11"/>
<polygon fill="black" stroke="black" points="376.2,-118.1 372.7,-108.1 369.2,-118.1 376.2,-118.1"/>
</g>
<!-- NavigateToDeposit -->
<g id="node10" class="node">
<title>NavigateToDeposit</title>
<polygon fill="orange" stroke="black" points="559.7,-108 443.7,-108 443.7,-72 559.7,-72 559.7,-108"/>
<text text-anchor="middle" x="501.7" y="-87.8" font-family="Times,serif" font-size="9.00">Ⓜ NavigateToDeposit</text>
</g>
<!-- MainSequence&#45;&gt;NavigateToDeposit -->
<g id="edge9" class="edge">
<title>MainSequence&#45;&gt;NavigateToDeposit</title>
<path fill="none" stroke="black" d="M404.26,-143.88C421.36,-134.6 442.69,-123.03 461.02,-113.08"/>
<polygon fill="black" stroke="black" points="462.91,-116.04 470.03,-108.19 459.57,-109.88 462.91,-116.04"/>
</g>
<!-- ReleaseObject -->
<g id="node13" class="node">
<title>ReleaseObject</title>
<polygon fill="orange" stroke="black" points="849.2,-108 754.2,-108 754.2,-72 849.2,-72 849.2,-108"/>
<text text-anchor="middle" x="801.7" y="-87.8" font-family="Times,serif" font-size="9.00">Ⓜ ReleaseObject</text>
</g>
<!-- MainSequence&#45;&gt;ReleaseObject -->
<g id="edge12" class="edge">
<title>MainSequence&#45;&gt;ReleaseObject</title>
<path fill="none" stroke="black" d="M421.5,-153.04C501.16,-140.04 658.8,-114.32 743.93,-100.43"/>
<polygon fill="black" stroke="black" points="744.63,-103.86 753.94,-98.79 743.51,-96.95 744.63,-103.86"/>
</g>
<!-- NavigateToOrigin -->
<g id="node17" class="node">
<title>NavigateToOrigin</title>
<polygon fill="orange" stroke="black" points="1153.2,-108 1042.2,-108 1042.2,-72 1153.2,-72 1153.2,-108"/>
<text text-anchor="middle" x="1097.7" y="-87.8" font-family="Times,serif" font-size="9.00">Ⓜ NavigateToOrigin</text>
</g>
<!-- MainSequence&#45;&gt;NavigateToOrigin -->
<g id="edge16" class="edge">
<title>MainSequence&#45;&gt;NavigateToOrigin</title>
<path fill="none" stroke="black" d="M421.4,-156.3C548.13,-144.06 888.33,-111.22 1032.11,-97.33"/>
<polygon fill="black" stroke="black" points="1032.5,-100.81 1042.12,-96.37 1031.83,-93.84 1032.5,-100.81"/>
</g>
<!-- GetCoordinatesObject -->
<g id="node5" class="node">
<title>GetCoordinatesObject</title>
<ellipse fill="gray" stroke="black" cx="68.7" cy="-18" rx="68.91" ry="18"/>
<text text-anchor="middle" x="68.7" y="-15.8" font-family="Times,serif" font-size="9.00">GetCoordinatesObject</text>
</g>
<!-- NavigateToObject&#45;&gt;GetCoordinatesObject -->
<g id="edge4" class="edge">
<title>NavigateToObject&#45;&gt;GetCoordinatesObject</title>
<path fill="none" stroke="black" d="M211.47,-71.88C182.6,-61.18 145.52,-47.45 116.39,-36.66"/>
<polygon fill="black" stroke="black" points="117.43,-33.31 106.84,-33.12 115,-39.88 117.43,-33.31"/>
</g>
<!-- NavegateObj -->
<g id="node6" class="node">
<title>NavegateObj</title>
<ellipse fill="gray" stroke="black" cx="199.7" cy="-18" rx="44.41" ry="18"/>
<text text-anchor="middle" x="199.7" y="-15.8" font-family="Times,serif" font-size="9.00">NavegateObj</text>
</g>
<!-- NavigateToObject&#45;&gt;NavegateObj -->
<g id="edge5" class="edge">
<title>NavigateToObject&#45;&gt;NavegateObj</title>
<path fill="none" stroke="black" d="M243.37,-71.7C236.31,-63.18 227.68,-52.76 219.96,-43.45"/>
<polygon fill="black" stroke="black" points="222.55,-41.09 213.48,-35.62 217.16,-45.56 222.55,-41.09"/>
</g>
<!-- Grasp -->
<g id="node8" class="node">
<title>Grasp</title>
<ellipse fill="gray" stroke="black" cx="288.7" cy="-18" rx="27" ry="18"/>
<text text-anchor="middle" x="288.7" y="-15.8" font-family="Times,serif" font-size="9.00">Grasp</text>
</g>
<!-- HoldObject&#45;&gt;Grasp -->
<g id="edge7" class="edge">
<title>HoldObject&#45;&gt;Grasp</title>
<path fill="none" stroke="black" d="M351.94,-71.7C340.06,-61.8 325.11,-49.34 312.73,-39.02"/>
<polygon fill="black" stroke="black" points="314.95,-36.31 305.02,-32.6 310.47,-41.69 314.95,-36.31"/>
</g>
<!-- SafePosObj -->
<g id="node9" class="node">
<title>SafePosObj</title>
<ellipse fill="gray" stroke="black" cx="372.7" cy="-18" rx="39.02" ry="18"/>
<text text-anchor="middle" x="372.7" y="-15.8" font-family="Times,serif" font-size="9.00">SafePosObj</text>
</g>
<!-- HoldObject&#45;&gt;SafePosObj -->
<g id="edge8" class="edge">
<title>HoldObject&#45;&gt;SafePosObj</title>
<path fill="none" stroke="black" d="M372.7,-71.7C372.7,-63.98 372.7,-54.71 372.7,-46.11"/>
<polygon fill="black" stroke="black" points="376.2,-46.1 372.7,-36.1 369.2,-46.1 376.2,-46.1"/>
</g>
<!-- GetCoordinatesDeposit -->
<g id="node11" class="node">
<title>GetCoordinatesDeposit</title>
<ellipse fill="gray" stroke="black" cx="501.7" cy="-18" rx="71.68" ry="18"/>
<text text-anchor="middle" x="501.7" y="-15.8" font-family="Times,serif" font-size="9.00">GetCoordinatesDeposit</text>
</g>
<!-- NavigateToDeposit&#45;&gt;GetCoordinatesDeposit -->
<g id="edge10" class="edge">
<title>NavigateToDeposit&#45;&gt;GetCoordinatesDeposit</title>
<path fill="none" stroke="black" d="M501.7,-71.7C501.7,-63.98 501.7,-54.71 501.7,-46.11"/>
<polygon fill="black" stroke="black" points="505.2,-46.1 501.7,-36.1 498.2,-46.1 505.2,-46.1"/>
</g>
<!-- NavegateDep -->
<g id="node12" class="node">
<title>NavegateDep</title>
<ellipse fill="gray" stroke="black" cx="637.7" cy="-18" rx="46.38" ry="18"/>
<text text-anchor="middle" x="637.7" y="-15.8" font-family="Times,serif" font-size="9.00">NavegateDep</text>
</g>
<!-- NavigateToDeposit&#45;&gt;NavegateDep -->
<g id="edge11" class="edge">
<title>NavigateToDeposit&#45;&gt;NavegateDep</title>
<path fill="none" stroke="black" d="M534.97,-71.88C555.16,-61.49 580.93,-48.22 601.6,-37.58"/>
<polygon fill="black" stroke="black" points="603.42,-40.58 610.71,-32.9 600.22,-34.36 603.42,-40.58"/>
</g>
<!-- RealeasePos1 -->
<g id="node14" class="node">
<title>RealeasePos1</title>
<ellipse fill="gray" stroke="black" cx="747.7" cy="-18" rx="45.72" ry="18"/>
<text text-anchor="middle" x="747.7" y="-15.8" font-family="Times,serif" font-size="9.00">RealeasePos1</text>
</g>
<!-- ReleaseObject&#45;&gt;RealeasePos1 -->
<g id="edge13" class="edge">
<title>ReleaseObject&#45;&gt;RealeasePos1</title>
<path fill="none" stroke="black" d="M788.36,-71.7C781.85,-63.27 773.91,-52.97 766.78,-43.73"/>
<polygon fill="black" stroke="black" points="769.41,-41.4 760.53,-35.62 763.86,-45.68 769.41,-41.4"/>
</g>
<!-- RealeasePos2 -->
<g id="node15" class="node">
<title>RealeasePos2</title>
<ellipse fill="gray" stroke="black" cx="856.7" cy="-18" rx="45.72" ry="18"/>
<text text-anchor="middle" x="856.7" y="-15.8" font-family="Times,serif" font-size="9.00">RealeasePos2</text>
</g>
<!-- ReleaseObject&#45;&gt;RealeasePos2 -->
<g id="edge14" class="edge">
<title>ReleaseObject&#45;&gt;RealeasePos2</title>
<path fill="none" stroke="black" d="M815.3,-71.7C821.92,-63.27 830.01,-52.97 837.27,-43.73"/>
<polygon fill="black" stroke="black" points="840.22,-45.65 843.64,-35.62 834.71,-41.32 840.22,-45.65"/>
</g>
<!-- SafePosHome -->
<g id="node16" class="node">
<title>SafePosHome</title>
<ellipse fill="gray" stroke="black" cx="965.7" cy="-18" rx="45.07" ry="18"/>
<text text-anchor="middle" x="965.7" y="-15.8" font-family="Times,serif" font-size="9.00">SafePosHome</text>
</g>
<!-- ReleaseObject&#45;&gt;SafePosHome -->
<g id="edge15" class="edge">
<title>ReleaseObject&#45;&gt;SafePosHome</title>
<path fill="none" stroke="black" d="M841.82,-71.88C867.64,-60.86 901.02,-46.61 926.63,-35.68"/>
<polygon fill="black" stroke="black" points="928.21,-38.81 936.03,-31.67 925.46,-32.37 928.21,-38.81"/>
</g>
<!-- GetCoordinatesOrigin -->
<g id="node18" class="node">
<title>GetCoordinatesOrigin</title>
<ellipse fill="gray" stroke="black" cx="1097.7" cy="-18" rx="68.91" ry="18"/>
<text text-anchor="middle" x="1097.7" y="-15.8" font-family="Times,serif" font-size="9.00">GetCoordinatesOrigin</text>
</g>
<!-- NavigateToOrigin&#45;&gt;GetCoordinatesOrigin -->
<g id="edge17" class="edge">
<title>NavigateToOrigin&#45;&gt;GetCoordinatesOrigin</title>
<path fill="none" stroke="black" d="M1097.7,-71.7C1097.7,-63.98 1097.7,-54.71 1097.7,-46.11"/>
<polygon fill="black" stroke="black" points="1101.2,-46.1 1097.7,-36.1 1094.2,-46.1 1101.2,-46.1"/>
</g>
<!-- NavegateOrg -->
<g id="node19" class="node">
<title>NavegateOrg</title>
<ellipse fill="gray" stroke="black" cx="1229.7" cy="-18" rx="45.72" ry="18"/>
<text text-anchor="middle" x="1229.7" y="-15.8" font-family="Times,serif" font-size="9.00">NavegateOrg</text>
</g>
<!-- NavigateToOrigin&#45;&gt;NavegateOrg -->
<g id="edge18" class="edge">
<title>NavigateToOrigin&#45;&gt;NavegateOrg</title>
<path fill="none" stroke="black" d="M1130,-71.88C1149.59,-61.49 1174.6,-48.22 1194.67,-37.58"/>
<polygon fill="black" stroke="black" points="1196.31,-40.67 1203.5,-32.9 1193.03,-34.49 1196.31,-40.67"/>
</g>
</g>
</svg>
