<?xml version="1.0" encoding="UTF-8" standalone="no"?>
<!DOCTYPE svg PUBLIC "-//W3C//DTD SVG 1.1//EN"
 "http://www.w3.org/Graphics/SVG/1.1/DTD/svg11.dtd">
<!-- Generated by graphviz version 2.43.0 (0)
 -->
<!-- Title: pastafarianism Pages: 1 -->
<svg width="626pt" height="188pt"
 viewBox="0.00 0.00 626.45 188.00" xmlns="http://www.w3.org/2000/svg" xmlns:xlink="http://www.w3.org/1999/xlink">
<g id="graph0" class="graph" transform="scale(1 1) rotate(0) translate(4 184)">
<title>pastafarianism</title>
<polygon fill="white" stroke="transparent" points="-4,4 -4,-184 622.45,-184 622.45,4 -4,4"/>
<!-- MainSequence -->
<g id="node1" class="node">
<title>MainSequence</title>
<polygon fill="orange" stroke="black" points="277.36,-180 180.36,-180 180.36,-144 277.36,-144 277.36,-180"/>
<text text-anchor="middle" x="228.86" y="-159.8" font-family="Times,serif" font-size="9.00">Ⓜ MainSequence</text>
</g>
<!-- SeleccionarRobot -->
<g id="node2" class="node">
<title>SeleccionarRobot</title>
<ellipse fill="gray" stroke="black" cx="93.86" cy="-90" rx="56.66" ry="18"/>
<text text-anchor="middle" x="93.86" y="-87.8" font-family="Times,serif" font-size="9.00">SeleccionarRobot</text>
</g>
<!-- MainSequence&#45;&gt;SeleccionarRobot -->
<g id="edge1" class="edge">
<title>MainSequence&#45;&gt;SeleccionarRobot</title>
<path fill="none" stroke="black" d="M195.83,-143.88C176.34,-133.77 151.6,-120.94 131.37,-110.45"/>
<polygon fill="black" stroke="black" points="132.92,-107.31 122.43,-105.81 129.69,-113.52 132.92,-107.31"/>
</g>
<!-- NavigationToObject -->
<g id="node3" class="node">
<title>NavigationToObject</title>
<polygon fill="orange" stroke="black" points="289.36,-108 168.36,-108 168.36,-72 289.36,-72 289.36,-108"/>
<text text-anchor="middle" x="228.86" y="-87.8" font-family="Times,serif" font-size="9.00">Ⓜ NavigationToObject</text>
</g>
<!-- MainSequence&#45;&gt;NavigationToObject -->
<g id="edge2" class="edge">
<title>MainSequence&#45;&gt;NavigationToObject</title>
<path fill="none" stroke="black" d="M228.86,-143.7C228.86,-135.98 228.86,-126.71 228.86,-118.11"/>
<polygon fill="black" stroke="black" points="232.36,-118.1 228.86,-108.1 225.36,-118.1 232.36,-118.1"/>
</g>
<!-- NavigationOrigin -->
<g id="node6" class="node">
<title>NavigationOrigin</title>
<polygon fill="orange" stroke="black" points="442.86,-108 332.86,-108 332.86,-72 442.86,-72 442.86,-108"/>
<text text-anchor="middle" x="387.86" y="-87.8" font-family="Times,serif" font-size="9.00">Ⓜ NavigationOrigin</text>
</g>
<!-- MainSequence&#45;&gt;NavigationOrigin -->
<g id="edge5" class="edge">
<title>MainSequence&#45;&gt;NavigationOrigin</title>
<path fill="none" stroke="black" d="M267.76,-143.88C289.49,-134.31 316.76,-122.3 339.82,-112.15"/>
<polygon fill="black" stroke="black" points="341.35,-115.3 349.09,-108.07 338.53,-108.89 341.35,-115.3"/>
</g>
<!-- ObtenerCoordenadas1 -->
<g id="node4" class="node">
<title>ObtenerCoordenadas1</title>
<ellipse fill="gray" stroke="black" cx="69.86" cy="-18" rx="69.72" ry="18"/>
<text text-anchor="middle" x="69.86" y="-15.8" font-family="Times,serif" font-size="9.00">ObtenerCoordenadas1</text>
</g>
<!-- NavigationToObject&#45;&gt;ObtenerCoordenadas1 -->
<g id="edge3" class="edge">
<title>NavigationToObject&#45;&gt;ObtenerCoordenadas1</title>
<path fill="none" stroke="black" d="M189.96,-71.88C166.59,-61.59 136.81,-48.48 112.76,-37.89"/>
<polygon fill="black" stroke="black" points="114.07,-34.64 103.51,-33.81 111.25,-41.05 114.07,-34.64"/>
</g>
<!-- NavegarHaciaDestino1 -->
<g id="node5" class="node">
<title>NavegarHaciaDestino1</title>
<ellipse fill="gray" stroke="black" cx="228.86" cy="-18" rx="71.68" ry="18"/>
<text text-anchor="middle" x="228.86" y="-15.8" font-family="Times,serif" font-size="9.00">NavegarHaciaDestino1</text>
</g>
<!-- NavigationToObject&#45;&gt;NavegarHaciaDestino1 -->
<g id="edge4" class="edge">
<title>NavigationToObject&#45;&gt;NavegarHaciaDestino1</title>
<path fill="none" stroke="black" d="M228.86,-71.7C228.86,-63.98 228.86,-54.71 228.86,-46.11"/>
<polygon fill="black" stroke="black" points="232.36,-46.1 228.86,-36.1 225.36,-46.1 232.36,-46.1"/>
</g>
<!-- ObtenerCoordenadas3 -->
<g id="node7" class="node">
<title>ObtenerCoordenadas3</title>
<ellipse fill="gray" stroke="black" cx="387.86" cy="-18" rx="69.72" ry="18"/>
<text text-anchor="middle" x="387.86" y="-15.8" font-family="Times,serif" font-size="9.00">ObtenerCoordenadas3</text>
</g>
<!-- NavigationOrigin&#45;&gt;ObtenerCoordenadas3 -->
<g id="edge6" class="edge">
<title>NavigationOrigin&#45;&gt;ObtenerCoordenadas3</title>
<path fill="none" stroke="black" d="M387.86,-71.7C387.86,-63.98 387.86,-54.71 387.86,-46.11"/>
<polygon fill="black" stroke="black" points="391.36,-46.1 387.86,-36.1 384.36,-46.1 391.36,-46.1"/>
</g>
<!-- NavegarHaciaDestino3 -->
<g id="node8" class="node">
<title>NavegarHaciaDestino3</title>
<ellipse fill="gray" stroke="black" cx="546.86" cy="-18" rx="71.68" ry="18"/>
<text text-anchor="middle" x="546.86" y="-15.8" font-family="Times,serif" font-size="9.00">NavegarHaciaDestino3</text>
</g>
<!-- NavigationOrigin&#45;&gt;NavegarHaciaDestino3 -->
<g id="edge7" class="edge">
<title>NavigationOrigin&#45;&gt;NavegarHaciaDestino3</title>
<path fill="none" stroke="black" d="M426.76,-71.88C450.05,-61.62 479.7,-48.57 503.71,-38"/>
<polygon fill="black" stroke="black" points="505.21,-41.16 512.95,-33.93 502.39,-34.76 505.21,-41.16"/>
</g>
</g>
</svg>
